<svg width="99" height="16" viewBox="0 0 99 16" fill="none" xmlns="http://www.w3.org/2000/svg">
<mask id="path-1-outside-1" maskUnits="userSpaceOnUse" x="-0.494141" y="0" width="99" height="16" fill="black">
<rect fill="white" x="-0.494141" width="99" height="16"/>
<path fill-rule="evenodd" clip-rule="evenodd" d=""/>
</mask>
<path fill-rule="evenodd" clip-rule="evenodd" d="M 58.77 15.922 L 56.131 15.922 L 51.882 0.783 L 53.984 0.112 L 57.517 13.664 L 60.849 1.901 L 63.51 1.901 L 66.82 13.664 L 70.331 0.179 L 72.299 0.783 L 68.072 15.922 L 65.434 15.922 L 62.124 4.16 L 58.77 15.922 Z M 11.897 1.275 L 11.114 3.041 Q 10.175 2.527 9.202 2.192 A 6.119 6.119 0 0 0 7.838 1.896 A 7.654 7.654 0 0 0 7.044 1.856 A 4.502 4.502 0 0 0 5.37 2.163 A 4.231 4.231 0 0 0 4.54 2.605 A 4.539 4.539 0 0 0 3.349 3.817 A 6.14 6.14 0 0 0 2.807 4.808 A 7.07 7.07 0 0 0 2.349 6.313 Q 2.214 7.014 2.181 7.817 A 13.04 13.04 0 0 0 2.169 8.364 A 10.178 10.178 0 0 0 2.265 9.8 Q 2.406 10.783 2.751 11.573 A 5.407 5.407 0 0 0 3.407 12.701 A 4.272 4.272 0 0 0 4.361 13.619 A 4.01 4.01 0 0 0 6.555 14.331 A 4.918 4.918 0 0 0 6.731 14.335 A 5.09 5.09 0 0 0 7.983 14.186 A 4.212 4.212 0 0 0 8.956 13.809 A 9.026 9.026 0 0 0 9.628 13.41 Q 9.947 13.2 10.203 12.985 A 4.459 4.459 0 0 0 10.488 12.724 L 10.488 9.303 L 7.246 9.303 L 7.246 7.626 L 12.501 7.626 L 12.501 15.922 L 10.622 15.922 L 10.622 14.357 Q 9.84 15.05 8.722 15.62 A 5.276 5.276 0 0 1 6.618 16.179 A 6.291 6.291 0 0 1 6.239 16.191 A 5.942 5.942 0 0 1 4.157 15.833 A 5.481 5.481 0 0 1 3.019 15.251 A 6.013 6.013 0 0 1 1.245 13.396 A 7.592 7.592 0 0 1 0.805 12.579 A 8.393 8.393 0 0 1 0.155 10.439 A 11.592 11.592 0 0 1 0 8.498 A 12.591 12.591 0 0 1 0.187 6.28 A 9.52 9.52 0 0 1 0.85 4.081 A 7.319 7.319 0 0 1 2.143 2.08 A 6.587 6.587 0 0 1 3.299 1.085 A 6.224 6.224 0 0 1 5.841 0.101 A 8.288 8.288 0 0 1 7.156 0 Q 8.61 0 9.75 0.358 A 11.487 11.487 0 0 1 11.897 1.275 Z M 14.625 14.603 L 15.699 12.814 A 7.16 7.16 0 0 0 17.51 13.91 A 5.221 5.221 0 0 0 18.711 14.247 A 7.183 7.183 0 0 0 19.858 14.335 A 6.257 6.257 0 0 0 20.875 14.257 Q 21.417 14.168 21.856 13.975 A 3.064 3.064 0 0 0 22.408 13.664 A 2.299 2.299 0 0 0 23.033 13.014 Q 23.347 12.512 23.347 11.852 A 2.67 2.67 0 0 0 23.271 11.205 A 2.195 2.195 0 0 0 23.079 10.701 A 1.811 1.811 0 0 0 22.81 10.33 Q 22.524 10.019 22.039 9.717 A 7.179 7.179 0 0 0 21.485 9.409 Q 20.799 9.061 19.769 8.677 A 20.219 20.219 0 0 1 18.739 8.245 Q 17.828 7.832 17.197 7.413 A 4.904 4.904 0 0 1 16.506 6.866 Q 16.122 6.497 15.886 6.08 A 2.975 2.975 0 0 1 15.822 5.96 A 3.727 3.727 0 0 1 15.482 4.915 A 5.127 5.127 0 0 1 15.408 4.025 Q 15.408 2.907 16.023 2.002 A 3.841 3.841 0 0 1 17.019 1.009 A 5.23 5.23 0 0 1 17.834 0.548 Q 18.918 0.052 20.416 0.005 A 10.115 10.115 0 0 1 20.73 0 A 11.829 11.829 0 0 1 22.047 0.07 A 8.819 8.819 0 0 1 23.224 0.28 Q 24.331 0.559 25.382 1.073 L 24.599 2.885 A 7.043 7.043 0 0 0 23.677 2.433 A 9.322 9.322 0 0 0 22.821 2.136 Q 21.804 1.834 20.686 1.834 Q 19.21 1.834 18.36 2.415 A 2.214 2.214 0 0 0 17.876 2.855 A 1.646 1.646 0 0 0 17.51 3.914 A 2.34 2.34 0 0 0 17.576 4.477 A 1.915 1.915 0 0 0 17.756 4.942 A 1.546 1.546 0 0 0 17.995 5.261 Q 18.246 5.524 18.671 5.78 A 5.256 5.256 0 0 0 18.729 5.814 A 7.38 7.38 0 0 0 19.225 6.077 Q 19.887 6.399 20.909 6.776 Q 22.654 7.425 23.671 8.14 Q 24.689 8.856 25.114 9.694 A 3.931 3.931 0 0 1 25.503 11.005 A 4.955 4.955 0 0 1 25.538 11.606 A 4.855 4.855 0 0 1 25.389 12.836 A 3.825 3.825 0 0 1 24.812 14.089 A 4.387 4.387 0 0 1 23.262 15.435 A 5.447 5.447 0 0 1 22.799 15.654 A 6.825 6.825 0 0 1 21.142 16.102 A 8.951 8.951 0 0 1 19.858 16.191 A 10.593 10.593 0 0 1 18.119 16.054 A 8.509 8.509 0 0 1 16.884 15.755 A 8.544 8.544 0 0 1 15.684 15.267 A 6.358 6.358 0 0 1 14.625 14.603 Z M 39.515 14.603 L 40.589 12.814 A 7.16 7.16 0 0 0 42.4 13.91 A 5.221 5.221 0 0 0 43.601 14.247 A 7.183 7.183 0 0 0 44.748 14.335 A 6.257 6.257 0 0 0 45.765 14.257 Q 46.307 14.168 46.745 13.975 A 3.064 3.064 0 0 0 47.297 13.664 A 2.299 2.299 0 0 0 47.923 13.014 Q 48.237 12.512 48.237 11.852 A 2.67 2.67 0 0 0 48.161 11.205 A 2.195 2.195 0 0 0 47.968 10.701 A 1.811 1.811 0 0 0 47.7 10.33 Q 47.414 10.019 46.928 9.717 A 7.179 7.179 0 0 0 46.375 9.409 Q 45.689 9.061 44.659 8.677 A 20.219 20.219 0 0 1 43.628 8.245 Q 42.718 7.832 42.087 7.413 A 4.904 4.904 0 0 1 41.396 6.866 Q 41.012 6.497 40.776 6.08 A 2.975 2.975 0 0 1 40.712 5.96 A 3.727 3.727 0 0 1 40.372 4.915 A 5.127 5.127 0 0 1 40.298 4.025 Q 40.298 2.907 40.913 2.002 A 3.841 3.841 0 0 1 41.909 1.009 A 5.23 5.23 0 0 1 42.724 0.548 Q 43.808 0.052 45.305 0.005 A 10.115 10.115 0 0 1 45.62 0 A 11.829 11.829 0 0 1 46.937 0.07 A 8.819 8.819 0 0 1 48.114 0.28 Q 49.221 0.559 50.272 1.073 L 49.489 2.885 A 7.043 7.043 0 0 0 48.566 2.433 A 9.322 9.322 0 0 0 47.711 2.136 Q 46.694 1.834 45.576 1.834 Q 44.1 1.834 43.25 2.415 A 2.214 2.214 0 0 0 42.766 2.855 A 1.646 1.646 0 0 0 42.4 3.914 A 2.34 2.34 0 0 0 42.465 4.477 A 1.915 1.915 0 0 0 42.646 4.942 A 1.546 1.546 0 0 0 42.885 5.261 Q 43.136 5.524 43.561 5.78 A 5.256 5.256 0 0 0 43.619 5.814 A 7.38 7.38 0 0 0 44.114 6.077 Q 44.777 6.399 45.799 6.776 Q 47.543 7.425 48.561 8.14 Q 49.578 8.856 50.003 9.694 A 3.931 3.931 0 0 1 50.393 11.005 A 4.955 4.955 0 0 1 50.428 11.606 A 4.855 4.855 0 0 1 50.279 12.836 A 3.825 3.825 0 0 1 49.701 14.089 A 4.387 4.387 0 0 1 48.151 15.435 A 5.447 5.447 0 0 1 47.689 15.654 A 6.825 6.825 0 0 1 46.032 16.102 A 8.951 8.951 0 0 1 44.748 16.191 A 10.593 10.593 0 0 1 43.009 16.054 A 8.509 8.509 0 0 1 41.774 15.755 A 8.544 8.544 0 0 1 40.574 15.267 A 6.358 6.358 0 0 1 39.515 14.603 Z M 86.343 15.363 L 84.397 16.146 L 82.653 11.673 L 75.407 11.673 L 73.663 16.101 L 71.852 15.363 L 77.979 0.268 L 80.305 0.268 L 86.343 15.363 Z M 33.813 15.922 L 31.688 15.922 L 31.688 2.147 L 26.88 2.147 L 26.88 0.268 L 38.621 0.268 L 38.621 2.147 L 33.813 2.147 L 33.813 15.922 Z M 90.704 15.922 L 88.579 15.922 L 88.579 0.313 A 25.11 25.11 0 0 1 89.544 0.215 A 32.998 32.998 0 0 1 90.603 0.145 Q 91.71 0.09 92.895 0.09 Q 94.588 0.09 95.841 0.555 A 5.817 5.817 0 0 1 96.205 0.704 A 5.503 5.503 0 0 1 97.341 1.382 A 4.332 4.332 0 0 1 98.285 2.393 A 4.282 4.282 0 0 1 98.996 4.633 A 5.232 5.232 0 0 1 99 4.853 A 5.648 5.648 0 0 1 98.842 6.222 A 4.309 4.309 0 0 1 98.173 7.693 A 4.99 4.99 0 0 1 96.484 9.175 A 6.276 6.276 0 0 1 95.869 9.471 Q 94.394 10.086 92.448 10.086 Q 91.509 10.086 90.704 10.019 L 90.704 15.922 Z M 90.704 1.968 L 90.704 8.207 A 10.727 10.727 0 0 0 90.994 8.239 Q 91.124 8.252 91.27 8.263 A 21.525 21.525 0 0 0 91.576 8.285 A 15.226 15.226 0 0 0 92.118 8.311 A 20.38 20.38 0 0 0 92.716 8.319 Q 94.12 8.319 95.079 7.874 A 3.404 3.404 0 0 0 95.802 7.425 A 2.884 2.884 0 0 0 96.888 5.313 A 3.873 3.873 0 0 0 96.898 5.032 A 3.232 3.232 0 0 0 96.728 3.96 A 2.714 2.714 0 0 0 95.847 2.728 A 3.458 3.458 0 0 0 94.711 2.133 Q 94.213 1.974 93.611 1.914 A 7.733 7.733 0 0 0 92.85 1.879 A 29.323 29.323 0 0 0 92.122 1.887 A 24.585 24.585 0 0 0 91.71 1.901 A 20.411 20.411 0 0 0 91.065 1.938 A 16.781 16.781 0 0 0 90.704 1.968 Z M 79.03 2.371 L 76.078 9.884 L 81.96 9.884 L 79.03 2.371 Z" fill="#FF007A"/>
<path d="" fill="#FF007A" mask="url(#path-1-outside-1)"/>
</svg>
